<?xml version="1.0" encoding="UTF-8" standalone="no"?>
<!-- Created with Inkscape (http://www.inkscape.org/) -->

<svg
   xmlns:dc="http://purl.org/dc/elements/1.1/"
   xmlns:cc="http://creativecommons.org/ns#"
   xmlns:rdf="http://www.w3.org/1999/02/22-rdf-syntax-ns#"
   xmlns:svg="http://www.w3.org/2000/svg"
   xmlns="http://www.w3.org/2000/svg"
   xmlns:sodipodi="http://sodipodi.sourceforge.net/DTD/sodipodi-0.dtd"
   xmlns:inkscape="http://www.inkscape.org/namespaces/inkscape"
   width="307.30505"
   height="232.92294"
   id="svg2"
   version="1.1"
   inkscape:version="0.48.4 r9939"
   inkscape:export-filename="/Dev/octopress/source/images/ring_im.png"
   inkscape:export-xdpi="94"
   inkscape:export-ydpi="94"
   sodipodi:docname="New document 1">
  <defs
     id="defs4" />
  <sodipodi:namedview
     id="base"
     pagecolor="#ffffff"
     bordercolor="#666666"
     borderopacity="1.0"
     inkscape:pageopacity="0.0"
     inkscape:pageshadow="2"
     inkscape:zoom="1.3843205"
     inkscape:cx="98.449603"
     inkscape:cy="203.72648"
     inkscape:document-units="px"
     inkscape:current-layer="layer1"
     showgrid="false"
     fit-margin-top="0"
     fit-margin-left="0"
     fit-margin-right="0"
     fit-margin-bottom="0"
     inkscape:window-width="956"
     inkscape:window-height="1059"
     inkscape:window-x="0"
     inkscape:window-y="17"
     inkscape:window-maximized="0" />
  <metadata
     id="metadata7">
    <rdf:RDF>
      <cc:Work
         rdf:about="">
        <dc:format>image/svg+xml</dc:format>
        <dc:type
           rdf:resource="http://purl.org/dc/dcmitype/StillImage" />
        <dc:title></dc:title>
      </cc:Work>
    </rdf:RDF>
  </metadata>
  <g
     inkscape:label="Layer 1"
     inkscape:groupmode="layer"
     id="layer1"
     transform="translate(-249.28601,-376.74265)">
    <g
       id="g3953">
      <path
         transform="translate(68.411014,102.19684)"
         d="m 259.79744,466.77597 c 0,21.10032 -17.10519,38.20551 -38.20551,38.20551 -21.10031,0 -38.2055,-17.10519 -38.2055,-38.20551 0,-21.10032 17.10519,-38.2055 38.2055,-38.2055 21.10032,0 38.20551,17.10518 38.20551,38.2055 z"
         sodipodi:ry="38.205505"
         sodipodi:rx="38.205505"
         sodipodi:cy="466.77597"
         sodipodi:cx="221.59193"
         id="path2987"
         style="fill:none;stroke:#000000;stroke-width:5;stroke-miterlimit:4;stroke-opacity:1;stroke-dasharray:none;stroke-dashoffset:0"
         sodipodi:type="arc" />
      <path
         d="m 259.79744,466.77597 c 0,21.10032 -17.10519,38.20551 -38.20551,38.20551 -21.10031,0 -38.2055,-17.10519 -38.2055,-38.20551 0,-21.10032 17.10519,-38.2055 38.2055,-38.2055 21.10032,0 38.20551,17.10518 38.20551,38.2055 z"
         sodipodi:ry="38.205505"
         sodipodi:rx="38.205505"
         sodipodi:cy="466.77597"
         sodipodi:cx="221.59193"
         id="path2987-14"
         style="fill:none;stroke:#000000;stroke-width:5;stroke-miterlimit:4;stroke-opacity:1;stroke-dasharray:none;stroke-dashoffset:0"
         sodipodi:type="arc"
         transform="translate(181.3025,-49.319853)" />
      <path
         sodipodi:nodetypes="ccccccccc"
         inkscape:connector-curvature="0"
         id="path3016-6"
         d="m 369.4624,469.42773 -32.93206,29.00094 11.15798,7.43037 -33.59711,13.19097 9.8821,-33.86594 8.2909,8.98774 17.77642,-37.99764 -0.4212,19.95061 z"
         style="fill:#000000;stroke:#000000;stroke-width:0.55797809px;stroke-linecap:butt;stroke-linejoin:miter;stroke-opacity:1" />
      <path
         transform="matrix(-1,0,0,1,737.46606,102.02207)"
         d="m 259.79744,466.77597 c 0,21.10032 -17.10519,38.20551 -38.20551,38.20551 -21.10031,0 -38.2055,-17.10519 -38.2055,-38.20551 0,-21.10032 17.10519,-38.2055 38.2055,-38.2055 21.10032,0 38.20551,17.10518 38.20551,38.2055 z"
         sodipodi:ry="38.205505"
         sodipodi:rx="38.205505"
         sodipodi:cy="466.77597"
         sodipodi:cx="221.59193"
         id="path2987-6"
         style="fill:none;stroke:#000000;stroke-width:5;stroke-miterlimit:4;stroke-opacity:1;stroke-dasharray:none;stroke-dashoffset:0"
         sodipodi:type="arc" />
      <path
         sodipodi:nodetypes="ccccccccc"
         inkscape:connector-curvature="0"
         id="path3016-3"
         d="m 495.48242,520.36884 -32.93207,-29.00094 11.15798,-7.43037 -33.59711,-13.19097 9.8821,33.86594 8.2909,-8.98774 17.77642,37.99764 -0.4212,-19.95061 z"
         style="fill:#000000;stroke:#000000;stroke-width:0.55797809px;stroke-linecap:butt;stroke-linejoin:miter;stroke-opacity:1" />
      <path
         sodipodi:nodetypes="ccccccccc"
         inkscape:connector-curvature="0"
         id="path3016-6-4-6"
         d="m 363.49617,587.64795 43.29959,-7.12185 -1.31538,13.34095 31.48489,-17.6485 -32.46798,-13.79812 1.70555,12.10825 -40.66486,-10.30493 15.70716,12.3081 z"
         style="fill:#000000;stroke:#000000;stroke-width:0.55797809px;stroke-linecap:butt;stroke-linejoin:miter;stroke-opacity:1" />
      <text
         sodipodi:linespacing="125%"
         id="text3859"
         y="364.58649"
         x="423.83224"
         style="font-size:23px;font-style:normal;font-weight:normal;line-height:125%;letter-spacing:0px;word-spacing:0px;fill:#000000;fill-opacity:1;stroke:none;font-family:Sans"
         xml:space="preserve"><tspan
           id="tspan3861"
           sodipodi:role="line"
           x="423.83224"
           y="364.58649"></tspan></text>
      <path
         transform="translate(157.0213,15.710233)"
         d="m 249.5619,391.23462 c 0,1.63526 -1.32564,2.9609 -2.9609,2.9609 -1.63526,0 -2.96091,-1.32564 -2.96091,-2.9609 0,-1.63526 1.32565,-2.9609 2.96091,-2.9609 1.63526,0 2.9609,1.32564 2.9609,2.9609 z"
         sodipodi:ry="2.9609039"
         sodipodi:rx="2.9609039"
         sodipodi:cy="391.23462"
         sodipodi:cx="246.601"
         id="path3867-2"
         style="fill:#000000;stroke:none"
         sodipodi:type="arc" />
      <path
         transform="translate(172.19651,23.088919)"
         d="m 249.5619,391.23462 c 0,1.63526 -1.32564,2.9609 -2.9609,2.9609 -1.63526,0 -2.96091,-1.32564 -2.96091,-2.9609 0,-1.63526 1.32565,-2.9609 2.96091,-2.9609 1.63526,0 2.9609,1.32564 2.9609,2.9609 z"
         sodipodi:ry="2.9609039"
         sodipodi:rx="2.9609039"
         sodipodi:cy="391.23462"
         sodipodi:cx="246.601"
         id="path3867-3"
         style="fill:#000000;stroke:none"
         sodipodi:type="arc" />
      <path
         transform="translate(155.58187,30.132085)"
         d="m 249.5619,391.23462 c 0,1.63526 -1.32564,2.9609 -2.9609,2.9609 -1.63526,0 -2.96091,-1.32564 -2.96091,-2.9609 0,-1.63526 1.32565,-2.9609 2.96091,-2.9609 1.63526,0 2.9609,1.32564 2.9609,2.9609 z"
         sodipodi:ry="2.9609039"
         sodipodi:rx="2.9609039"
         sodipodi:cy="391.23462"
         sodipodi:cx="246.601"
         id="path3867-6"
         style="fill:#000000;stroke:none"
         sodipodi:type="arc" />
      <path
         transform="translate(27.28843,181.66847)"
         d="m 249.5619,391.23462 c 0,1.63526 -1.32564,2.9609 -2.9609,2.9609 -1.63526,0 -2.96091,-1.32564 -2.96091,-2.9609 0,-1.63526 1.32565,-2.9609 2.96091,-2.9609 1.63526,0 2.9609,1.32564 2.9609,2.9609 z"
         sodipodi:ry="2.9609039"
         sodipodi:rx="2.9609039"
         sodipodi:cy="391.23462"
         sodipodi:cx="246.601"
         id="path3867-66"
         style="fill:#000000;stroke:none"
         sodipodi:type="arc" />
      <path
         transform="translate(42.87537,167.42038)"
         d="m 249.5619,391.23462 c 0,1.63526 -1.32564,2.9609 -2.9609,2.9609 -1.63526,0 -2.96091,-1.32564 -2.96091,-2.9609 0,-1.63526 1.32565,-2.9609 2.96091,-2.9609 1.63526,0 2.9609,1.32564 2.9609,2.9609 z"
         sodipodi:ry="2.9609039"
         sodipodi:rx="2.9609039"
         sodipodi:cy="391.23462"
         sodipodi:cx="246.601"
         id="path3867-2-9"
         style="fill:#000000;stroke:none"
         sodipodi:type="arc" />
      <path
         transform="translate(41.43594,181.84224)"
         d="m 249.5619,391.23462 c 0,1.63526 -1.32564,2.9609 -2.9609,2.9609 -1.63526,0 -2.96091,-1.32564 -2.96091,-2.9609 0,-1.63526 1.32565,-2.9609 2.96091,-2.9609 1.63526,0 2.9609,1.32564 2.9609,2.9609 z"
         sodipodi:ry="2.9609039"
         sodipodi:rx="2.9609039"
         sodipodi:cy="391.23462"
         sodipodi:cx="246.601"
         id="path3867-6-7"
         style="fill:#000000;stroke:none"
         sodipodi:type="arc" />
      <path
         transform="translate(254.25938,185.46902)"
         d="m 249.5619,391.23462 c 0,1.63526 -1.32564,2.9609 -2.9609,2.9609 -1.63526,0 -2.96091,-1.32564 -2.96091,-2.9609 0,-1.63526 1.32565,-2.9609 2.96091,-2.9609 1.63526,0 2.9609,1.32564 2.9609,2.9609 z"
         sodipodi:ry="2.9609039"
         sodipodi:rx="2.9609039"
         sodipodi:cy="391.23462"
         sodipodi:cx="246.601"
         id="path3867-8"
         style="fill:#000000;stroke:none"
         sodipodi:type="arc" />
      <path
         transform="translate(256.41599,171.6485)"
         d="m 249.5619,391.23462 c 0,1.63526 -1.32564,2.9609 -2.9609,2.9609 -1.63526,0 -2.96091,-1.32564 -2.96091,-2.9609 0,-1.63526 1.32565,-2.9609 2.96091,-2.9609 1.63526,0 2.9609,1.32564 2.9609,2.9609 z"
         sodipodi:ry="2.9609039"
         sodipodi:rx="2.9609039"
         sodipodi:cy="391.23462"
         sodipodi:cx="246.601"
         id="path3867-4-7"
         style="fill:#000000;stroke:none"
         sodipodi:type="arc" />
      <path
         transform="translate(285.02153,178.59962)"
         d="m 249.5619,391.23462 c 0,1.63526 -1.32564,2.9609 -2.9609,2.9609 -1.63526,0 -2.96091,-1.32564 -2.96091,-2.9609 0,-1.63526 1.32565,-2.9609 2.96091,-2.9609 1.63526,0 2.9609,1.32564 2.9609,2.9609 z"
         sodipodi:ry="2.9609039"
         sodipodi:rx="2.9609039"
         sodipodi:cy="391.23462"
         sodipodi:cx="246.601"
         id="path3867-3-1"
         style="fill:#000000;stroke:none"
         sodipodi:type="arc" />
    </g>
  </g>
</svg>
